<?xml version="1.0" encoding="utf-8"?>
<!-- Generator: Adobe Illustrator 19.0.0, SVG Export Plug-In . SVG Version: 6.00 Build 0)  -->
<svg version="1.1" id="Capa_1" xmlns="http://www.w3.org/2000/svg" xmlns:xlink="http://www.w3.org/1999/xlink" x="0px" y="0px"
	 viewBox="0 0 668.1 672.8" style="enable-background:new 0 0 668.1 672.8;" xml:space="preserve">
<style type="text/css">
	.st0{fill:#F6D36D;}
	.st1{fill:#FEC007;}
</style>
<g>
	<path class="st0" d="M332.9,155.9c12.9-37.3,25.7-74.7,38.6-112c4.4-12.7,8.9-25.4,13.3-38.1c0.6-1.9,1.6-3.7,1.1-5.8
		c6.3,0,12.7,0,19,0c15.6-0.1,26.7,7.5,33.5,21.1c6.5,12.9,10.5,27,15.5,40.5c30,81.7,59.8,163.4,89.7,245.1
		c25.8,70.6,51.6,141.2,77.4,211.9c15.3,41.9,30.6,83.7,46,125.6c4.2,11.4-4.2,25.2-17,27.8c-2.8,0.6-5.6,0.8-8.4,0.8
		c-34.8,0.1-69.7,0.1-104.5,0c-6.8,0-13.6-0.3-20.1-3c-3.5-1.4-5.7-3.6-6.9-7.2c-9.6-27.8-19.4-55.6-29-83.4
		c-31.8-91.3-63.5-182.6-95.2-273.8c-16.6-47.8-33.3-95.5-50-143.2C335.1,160,334.9,157.5,332.9,155.9z"/>
	<path class="st1" d="M334.9,155.9c-15.1,40.5-28.7,81.5-42.9,122.4c-44.6,128-89.2,255.9-133.6,383.9c-2.6,7.6-9,8.1-14.9,9.7
		c-2.8,0.8-6,0.7-8.9,0.7c-36.2,0-72.3-0.1-108.5,0.1c-9.4,0-16.8-3.3-22.3-10.9c-3.9-5.5-5-11.1-2.5-17.8
		c16-43.3,31.8-86.8,47.7-130.2c58.6-160.2,117.2-320.4,175.8-480.6c3.2-8.8,6.9-17.2,14.1-23.8c6.6-6,14.1-9.4,23-9.4
		c42,0,84,0,126,0c0.5,2.1-0.5,3.9-1.1,5.8c-4.4,12.7-8.9,25.4-13.3,38.1C360.6,81.2,347.8,118.6,334.9,155.9z"/>
</g>
</svg>
