<?xml version="1.0" standalone="no"?>
<!DOCTYPE svg PUBLIC "-//W3C//DTD SVG 20010904//EN"
 "http://www.w3.org/TR/2001/REC-SVG-20010904/DTD/svg10.dtd">
<svg version="1.0" xmlns="http://www.w3.org/2000/svg"
 width="673.000000pt" height="673.000000pt" viewBox="0 0 673.000000 673.000000"
 preserveAspectRatio="xMidYMid meet">
<metadata>
Created by potrace 1.14, written by Peter Selinger 2001-2017
</metadata>
<g transform="translate(0.000000,673.000000) scale(0.100000,-0.100000)"
fill="#000000" stroke="none">
<path d="M2554 6721 c-5 -5 -25 -14 -45 -20 -49 -16 -142 -101 -178 -164 -26
-46 -96 -214 -106 -257 -2 -8 -29 -82 -60 -165 -93 -251 -102 -276 -145 -395
-53 -145 -80 -217 -95 -255 -7 -16 -16 -41 -20 -55 -3 -14 -10 -34 -14 -45 -9
-20 -19 -49 -111 -300 -98 -270 -113 -310 -126 -342 -8 -17 -14 -36 -14 -42 0
-6 -4 -19 -9 -29 -5 -9 -17 -39 -26 -67 -10 -27 -28 -77 -40 -110 -13 -33 -35
-94 -50 -135 -15 -41 -30 -84 -35 -95 -12 -28 -91 -247 -95 -265 -4 -14 -40
-112 -115 -310 -15 -41 -47 -129 -71 -195 -23 -66 -46 -124 -49 -130 -4 -5
-11 -23 -15 -40 -12 -45 -9 -37 -80 -230 -37 -99 -73 -194 -81 -212 -8 -17
-14 -35 -14 -41 0 -5 -9 -31 -19 -58 -24 -61 -33 -86 -37 -99 -1 -5 -14 -39
-28 -74 -14 -36 -26 -69 -26 -74 0 -5 -6 -23 -14 -40 -24 -56 -76 -196 -76
-205 0 -5 -8 -27 -17 -48 -9 -22 -18 -43 -19 -49 -6 -21 -65 -181 -73 -200 -5
-11 -17 -42 -26 -70 -10 -27 -21 -59 -26 -70 -11 -26 -139 -375 -144 -395 -2
-8 -27 -76 -55 -150 -28 -74 -53 -142 -55 -150 -2 -8 -23 -64 -45 -125 -59
-157 -81 -219 -83 -230 -1 -5 -4 -12 -7 -15 -4 -4 -52 -137 -64 -175 -2 -5 -8
-21 -13 -35 -6 -14 -20 -54 -33 -90 -13 -36 -36 -99 -51 -140 -16 -41 -29 -90
-29 -110 1 -77 65 -162 151 -198 44 -19 72 -20 650 -19 622 0 676 3 733 41 25
16 54 61 61 94 2 10 22 69 45 132 22 63 50 142 61 175 11 33 23 67 26 75 3 8
7 20 9 25 7 25 115 332 121 345 8 19 8 19 18 55 4 17 10 35 14 40 3 6 6 15 7
20 1 6 14 42 28 80 14 39 26 70 25 70 0 0 5 14 11 30 7 17 13 37 15 45 2 8 20
60 40 115 20 55 38 107 40 115 5 23 73 216 103 295 14 39 27 75 27 80 1 6 5
19 9 30 19 49 31 81 32 90 2 8 32 94 51 145 3 8 7 20 8 26 2 7 17 50 33 95 17
46 46 129 65 184 19 55 47 134 61 175 15 41 28 80 29 85 2 6 8 24 14 40 21 57
26 70 29 80 1 6 17 51 34 100 18 50 33 95 35 100 1 6 8 24 14 40 7 17 14 35
15 40 12 47 20 72 27 80 4 6 10 23 13 38 2 15 7 31 10 36 3 5 37 101 76 212
39 112 73 211 77 219 8 19 8 19 18 55 4 17 10 35 14 40 3 6 6 15 8 20 1 6 19
57 39 115 52 148 154 443 158 455 2 6 6 17 9 25 3 8 19 56 36 105 16 50 53
155 81 235 28 80 53 152 55 160 2 8 20 58 40 110 20 52 41 111 47 130 5 19 13
38 17 43 6 6 31 -57 47 -118 2 -5 10 -28 18 -50 22 -58 135 -381 156 -445 10
-30 24 -68 31 -85 6 -16 13 -34 14 -40 4 -17 66 -199 76 -220 4 -11 25 -69 45
-130 20 -60 41 -118 46 -128 5 -10 12 -30 14 -45 3 -14 8 -30 12 -36 3 -6 7
-15 9 -21 1 -5 25 -75 53 -155 28 -80 69 -199 91 -265 22 -66 45 -129 50 -140
5 -11 20 -54 33 -95 14 -41 34 -100 45 -130 11 -30 47 -136 81 -235 34 -99 67
-193 75 -210 7 -16 19 -52 28 -80 16 -54 55 -167 67 -200 17 -42 89 -252 101
-290 6 -22 14 -44 18 -50 3 -5 6 -14 7 -20 3 -11 61 -182 71 -205 3 -8 7 -17
8 -20 1 -3 4 -12 8 -20 3 -8 20 -58 36 -110 17 -52 36 -103 41 -112 5 -10 14
-34 19 -55 9 -35 68 -205 85 -245 4 -9 9 -22 10 -30 2 -7 6 -20 9 -28 3 -8 13
-35 21 -60 8 -25 40 -117 71 -205 31 -88 61 -176 67 -195 6 -19 13 -39 16 -45
4 -5 7 -14 8 -20 1 -5 35 -102 74 -215 39 -113 80 -229 90 -258 17 -50 58
-108 68 -97 3 3 10 0 17 -5 6 -5 20 -11 31 -13 10 -1 24 -6 30 -9 14 -9 1251
-5 1281 4 48 15 69 30 121 89 43 49 52 134 22 209 -12 30 -24 62 -25 70 -2 8
-20 58 -40 110 -39 103 -85 229 -89 245 -2 6 -8 21 -14 35 -6 14 -23 59 -37
100 -43 122 -79 219 -107 290 -5 14 -10 27 -10 30 0 5 -25 73 -38 105 -5 11
-36 97 -70 190 -34 94 -70 193 -80 220 -74 197 -130 352 -130 359 0 4 -6 22
-14 39 -8 18 -42 109 -76 202 -34 94 -75 206 -92 250 -16 44 -31 85 -32 90 -2
6 -6 19 -10 30 -5 11 -16 43 -26 70 -22 60 -78 213 -114 311 -15 39 -30 84
-35 100 -5 16 -19 54 -31 84 -24 62 -96 259 -112 305 -5 17 -13 39 -18 50 -4
11 -18 47 -30 80 -12 33 -30 82 -41 109 -10 27 -19 52 -19 56 0 4 -8 25 -17
46 -9 22 -17 41 -18 44 -1 3 -5 19 -10 35 -4 17 -11 35 -16 40 -4 6 -8 15 -9
20 -1 6 -6 20 -11 33 -5 13 -12 35 -15 50 -4 15 -10 32 -14 37 -4 6 -13 28
-20 50 -7 22 -15 45 -19 50 -3 6 -6 16 -7 23 -2 7 -14 43 -29 80 -15 37 -29
74 -30 82 -4 15 -59 167 -76 205 -4 11 -28 76 -52 145 -54 149 -155 427 -167
455 -17 41 -32 84 -31 89 0 3 -7 23 -16 43 -8 21 -30 79 -48 128 -63 175 -175
480 -184 500 -9 22 -24 64 -81 230 -100 289 -149 377 -245 445 -87 61 -72 60
-930 60 -429 0 -785 -4 -791 -9z"/>
</g>
</svg>
